<?xml version="1.0" encoding="utf-8"?>
<!-- Generator: Adobe Illustrator 25.3.1, SVG Export Plug-In . SVG Version: 6.00 Build 0)  -->
<svg version="1.1" id="Layer_1" xmlns="http://www.w3.org/2000/svg" xmlns:xlink="http://www.w3.org/1999/xlink" x="0px" y="0px"
	 viewBox="0 0 52.7 9.8" style="enable-background:new 0 0 52.7 9.8;" xml:space="preserve">
<style type="text/css">
	.st0{fill:#FFFFFF;}
	.st1{fill:#99CA3C;}
</style>
<g>
	<path class="st0" d="M3.9,8.3c-0.8,0-1-0.4-1-0.4l-2.1-4C0.7,3.7,0.7,3.5,0.8,3.4S0.9,3.1,1.1,3l0.5-0.3c0.3-0.2,0.7,0,0.9,0.3
		l1.4,2.8L5.3,3c0.2-0.3,0.6-0.4,0.9-0.3L6.7,3C6.9,3.1,7,3.2,7,3.4s0,0.3-0.1,0.5l-2.1,4C4.8,7.9,4.6,8.3,3.9,8.3z"/>
</g>
<g>
	<path class="st0" d="M13.6,8.3c-0.8,0-0.9-0.4-1-0.4l-2.1-4c-0.2-0.3-0.1-0.7,0.3-0.9l0.5-0.3c0.2-0.1,0.3-0.1,0.5,0
		c0.2,0,0.3,0.2,0.4,0.3l1.4,2.8L15.1,3c0.2-0.3,0.6-0.4,0.9-0.3L16.5,3c0.3,0.2,0.4,0.6,0.3,0.9l-2.1,4C14.6,7.9,14.4,8.3,13.6,8.3
		z"/>
</g>
<g>
	<path class="st0" d="M9.1,8.2H8.5c-0.4,0-0.7-0.3-0.7-0.7V3.4c0-0.4,0.3-0.7,0.7-0.7h0.6c0.4,0,0.7,0.3,0.7,0.7v4.1
		C9.8,7.9,9.4,8.2,9.1,8.2z"/>
</g>
<g>
	<path class="st1" d="M45,8.2h-0.5c-0.3,0-0.6-0.3-0.6-0.7V3.4c0-0.4,0.2-0.7,0.6-0.7H45c0.3,0,0.6,0.3,0.6,0.7v4.1
		C45.6,7.9,45.3,8.2,45,8.2z"/>
</g>
<g>
	<path class="st0" d="M8.8,2.3c-0.6,0-1.1-0.5-1.1-1.1S8.2,0,8.8,0s1.1,0.5,1.1,1.1S9.4,2.3,8.8,2.3z"/>
</g>
<path class="st0" d="M19.9,2.7C18.3,2.7,17,4,17,5.5s1.3,2.8,2.8,2.8s2.8-1.2,2.8-2.8S21.5,2.7,19.9,2.7z M19.9,6.6
	c-0.6,0-1.1-0.5-1.1-1.1s0.5-1.1,1.1-1.1S21,4.9,21,5.5S20.5,6.6,19.9,6.6z"/>
<g>
	<path class="st1" d="M28.3,8.1H25c-0.2,0-0.4-0.2-0.4-0.4V3.4c0-0.3,0.2-0.6,0.6-0.6h3.2c0.2,0,0.4,0.2,0.4,0.4v0.4
		c0,0.2-0.2,0.4-0.4,0.4h-2.3v0.8h1.4c0.2,0,0.4,0.2,0.4,0.4v0.4c0,0.2-0.2,0.4-0.4,0.4h-1.4v0.8h2.3c0.2,0,0.4,0.2,0.4,0.4v0.4
		C28.8,7.9,28.6,8.1,28.3,8.1z"/>
</g>
<g>
	<path class="st1" d="M34.9,8.2c-0.1,0-0.2,0-0.3-0.1c-0.1-0.1-0.2-0.2-0.2-0.3l-0.2-2.5l-0.7,1.7l0,0c-0.2,0.3-0.5,0.3-0.5,0.3
		c0,0,0,0,0,0h-0.5h0c-0.3,0-0.5-0.3-0.5-0.3l-0.7-1.7l-0.2,2.5c0,0.3-0.2,0.5-0.5,0.5c0,0,0,0,0,0l-0.4,0c-0.1,0-0.2-0.1-0.3-0.2
		c-0.1-0.1-0.1-0.2-0.1-0.4L30,3.3c0-0.3,0.2-0.5,0.5-0.5c0,0,0,0,0,0l0.8,0c0.4,0,0.5,0.5,0.5,0.5l0.9,2.3l0.9-2.3
		c0.2-0.6,0.6-0.5,0.6-0.5l0.8,0.1c0.4,0.1,0.4,0.5,0.4,0.5l0.3,4.4c0,0.3-0.2,0.5-0.5,0.5L34.9,8.2C34.9,8.2,34.9,8.2,34.9,8.2z
		 M33.4,6.8L33.4,6.8L33.4,6.8z"/>
</g>
<path class="st1" d="M40.3,2.7h-1.8c-0.5,0-0.8,0.4-0.8,0.8v3.8c0,0.5,0.4,0.8,0.8,0.8l1.8,0C41.8,8.2,43,7,43,5.5
	C43,4,41.8,2.7,40.3,2.7z M40,7h-0.8V4H40c0.8,0,1.4,0.7,1.4,1.5C41.5,6.3,40.8,7,40,7z"/>
<path class="st1" d="M51.9,7.1l-1.8-3.9c-0.1-0.3-0.4-0.5-0.6-0.5c0,0,0,0-0.1,0h-0.5c0,0-0.1,0-0.2,0c-0.2,0-0.4,0.2-0.5,0.4
	l-1.8,3.9c-0.1,0.2-0.1,0.5-0.1,0.7c0,0.1,0.1,0.2,0.2,0.2l0.5,0.2c0,0,0.1,0,0.2,0c0,0,0.1,0,0.1,0c0.2-0.1,0.3-0.2,0.4-0.5
	l0.3-0.6h2.3l0.3,0.6c0,0.2,0.2,0.3,0.3,0.4c0.1,0.1,0.3,0.1,0.4,0L51.8,8C52,7.8,52.1,7.4,51.9,7.1z M48.5,6.1L48.5,6.1l0.7-1.8
	l0,0.1l0.7,1.7L48.5,6.1L48.5,6.1z"/>
</svg>
