<?xml version="1.0" encoding="utf-8"?>
<!-- Generator: Adobe Illustrator 25.3.1, SVG Export Plug-In . SVG Version: 6.00 Build 0)  -->
<svg version="1.1" id="Layer_1" xmlns="http://www.w3.org/2000/svg" xmlns:xlink="http://www.w3.org/1999/xlink" x="0px" y="0px"
	 viewBox="0 0 52.74 9.75" style="enable-background:new 0 0 52.74 9.75;" xml:space="preserve">
<style type="text/css">
	.st0{fill:#652C90;}
	.st1{fill:#99CA3C;}
</style>
<g>
	<path class="st0" d="M3.88,8.27c-0.77,0-0.95-0.42-0.96-0.43L0.8,3.88c-0.08-0.16-0.1-0.34-0.05-0.5s0.17-0.31,0.32-0.39l0.5-0.27
		c0.32-0.17,0.72-0.05,0.9,0.27l1.42,2.75L5.3,2.99c0.17-0.32,0.57-0.44,0.9-0.27l0.5,0.27c0.16,0.08,0.27,0.22,0.32,0.39
		c0.05,0.17,0.03,0.35-0.05,0.51L4.84,7.84C4.83,7.86,4.61,8.27,3.88,8.27z"/>
</g>
<g>
	<path class="st0" d="M13.65,8.27c-0.77,0-0.95-0.42-0.96-0.43l-2.13-3.96c-0.17-0.32-0.05-0.72,0.27-0.9l0.5-0.27
		c0.16-0.08,0.34-0.1,0.5-0.05c0.17,0.05,0.31,0.17,0.39,0.32l1.42,2.75l1.42-2.75c0.17-0.32,0.57-0.44,0.9-0.27l0.5,0.27
		c0.32,0.17,0.44,0.58,0.27,0.9L14.6,7.84C14.59,7.86,14.38,8.27,13.65,8.27z"/>
</g>
<g>
	<path class="st0" d="M9.08,8.19H8.49c-0.37,0-0.67-0.3-0.67-0.67V3.4c0-0.37,0.3-0.67,0.67-0.67h0.59c0.37,0,0.67,0.3,0.67,0.67
		v4.12C9.75,7.89,9.45,8.19,9.08,8.19z"/>
</g>
<g>
	<path class="st1" d="M45.02,8.19h-0.49c-0.31,0-0.57-0.3-0.57-0.67V3.4c0-0.37,0.25-0.67,0.57-0.67h0.49c0.31,0,0.57,0.3,0.57,0.67
		v4.12C45.59,7.89,45.34,8.19,45.02,8.19z"/>
</g>
<g>
	<path class="st0" d="M8.76,2.28c-0.6,0-1.09-0.5-1.09-1.12s0.49-1.12,1.09-1.12s1.09,0.5,1.09,1.12S9.36,2.28,8.76,2.28z"/>
</g>
<path class="st0" d="M19.89,2.72c-1.56,0-2.84,1.25-2.84,2.78s1.27,2.78,2.84,2.78c1.57,0,2.84-1.25,2.84-2.78
	S21.46,2.72,19.89,2.72z M19.89,6.55c-0.59,0-1.07-0.47-1.07-1.05c0-0.58,0.48-1.05,1.07-1.05c0.59,0,1.07,0.47,1.07,1.05
	C20.96,6.08,20.48,6.55,19.89,6.55z"/>
<g>
	<path class="st1" d="M28.34,8.13h-3.35c-0.23,0-0.42-0.19-0.42-0.42V3.4c0-0.31,0.25-0.56,0.56-0.56h3.21
		c0.23,0,0.42,0.19,0.42,0.42v0.37c0,0.23-0.19,0.42-0.42,0.42h-2.27v0.84h1.43c0.23,0,0.42,0.19,0.42,0.42v0.37
		c0,0.23-0.19,0.42-0.42,0.42h-1.43v0.84h2.27c0.23,0,0.42,0.19,0.42,0.42v0.37C28.76,7.94,28.57,8.13,28.34,8.13z"/>
</g>
<g>
	<path class="st1" d="M34.86,8.2c-0.12,0-0.23-0.04-0.33-0.12c-0.1-0.09-0.16-0.21-0.17-0.34L34.17,5.2l-0.71,1.66c0,0,0,0,0,0
		c-0.15,0.32-0.45,0.34-0.52,0.34c-0.01,0-0.01,0-0.02,0h-0.46c0,0-0.01,0-0.01,0c-0.3,0-0.45-0.33-0.45-0.34L31.29,5.2L31.1,7.74
		C31.08,8,30.86,8.2,30.6,8.2c-0.01,0-0.02,0-0.04,0l-0.43-0.03C30,8.16,29.88,8.1,29.79,8c-0.09-0.1-0.13-0.23-0.12-0.36L30,3.27
		c0.02-0.26,0.24-0.46,0.5-0.46c0.01,0,0.02,0,0.04,0l0.78,0.02c0.43,0.02,0.51,0.45,0.51,0.45l0.92,2.33l0.92-2.33
		c0.18-0.59,0.6-0.55,0.59-0.55l0.8,0.08c0.38,0.06,0.42,0.46,0.42,0.46l0.33,4.37c0.02,0.27-0.19,0.51-0.46,0.53L34.9,8.2
		C34.88,8.2,34.87,8.2,34.86,8.2z M33.44,6.85L33.44,6.85L33.44,6.85z"/>
</g>
<path class="st1" d="M40.27,2.73l-1.81,0c-0.46,0-0.83,0.37-0.83,0.83v3.81c0,0.46,0.37,0.83,0.83,0.83l1.85,0.01
	c1.5,0,2.68-1.19,2.68-2.7C42.99,3.97,41.77,2.73,40.27,2.73z M40.05,6.98h-0.84V3.99h0.84c0.79,0,1.43,0.67,1.43,1.49
	C41.48,6.31,40.84,6.98,40.05,6.98z"/>
<path class="st1" d="M51.93,7.09l-1.85-3.91c-0.13-0.27-0.36-0.45-0.58-0.45c-0.03,0-0.05-0.01-0.07-0.01h-0.49
	c-0.05,0-0.1,0.01-0.15,0.03c-0.18,0.05-0.36,0.22-0.46,0.43l-1.85,3.91c-0.12,0.24-0.14,0.48-0.08,0.65
	c0.04,0.1,0.12,0.18,0.22,0.22l0.47,0.22c0.05,0.02,0.1,0.04,0.15,0.04c0.04,0,0.07-0.01,0.11-0.02c0.15-0.05,0.3-0.22,0.42-0.46
	l0.3-0.64h2.27l0.3,0.63c0.04,0.18,0.17,0.33,0.34,0.41c0.14,0.07,0.29,0.07,0.41,0.01l0.39-0.2C52.03,7.84,52.1,7.45,51.93,7.09z
	 M48.51,6.07l0.01-0.03l0.69-1.74l0.02,0.06l0.68,1.72H48.51z"/>
</svg>
